#!OML:ASF E:\Style4\Style4.ASF
:FULLY-SPECIFIED
:DEGREES
3048
root 1.60524 17.3393 -1.09796 0.866312 -23.5339 3.09836
lowerback 13.2561 -1.19258 -7.03371
upperback 6.04033 -2.49481 -0.974413
thorax -0.791657 -1.39033 3.27332
lowerneck 2.93212 -0.859532 -2.91129
upperneck 3.48973 -1.30153 3.53329
head 0.630703 -0.673976 1.58973
rclavicle -4.77083e-015 -6.36111e-015
rhumerus 42.6219 -11.4076 -31.3517
rradius 88.5795
rwrist -12.2694
rhand 1.30407 8.97406
rfingers 7.12502
rthumb 26.8388 -19.1412
lclavicle -4.77083e-015 -6.36111e-015
lhumerus 50.4259 12.835 33.5086
lradius 72.3484
lwrist 4.13551
lhand 0.112792 26.9606
lfingers 7.12502
lthumb 25.6984 55.2458
rfemur -27.8162 8.43949 10.745
rtibia 41.6398
rfoot -15.6685 -7.66035
rtoes -20.0659
lfemur -21.115 14.9887 -27.2515
ltibia 42.4723
lfoot -27.1863 16.6755
ltoes -7.19358
3049
root 1.60044 17.3087 -1.10292 0.750936 -23.3221 3.09451
lowerback 13.2551 -1.18182 -7.13069
upperback 6.1324 -2.49059 -1.06855
thorax -0.693547 -1.39478 3.22598
lowerneck 3.00576 -0.904537 -2.84015
upperneck 3.38507 -1.36316 3.72812
head 0.589083 -0.704061 1.64034
rclavicle 6.71892e-014 -1.59028e-015
rhumerus 42.6061 -11.9548 -31.4175
rradius 88.7379
rwrist -12.4243
rhand 1.32394 8.98923
rfingers 7.12502
rthumb 26.8579 -19.1231
lclavicle 6.71892e-014 -1.59028e-015
lhumerus 50.3464 12.6363 33.475
lradius 72.6708
lwrist 4.13126
lhand 0.129239 26.899
lfingers 7.12502
lthumb 25.7142 55.1819
rfemur -28.0488 8.42795 10.7712
rtibia 42.3857
rfoot -16.0096 -7.85162
rtoes -19.8843
lfemur -21.3293 15.1123 -27.1963
ltibia 43.0754
lfoot -27.377 16.3054
ltoes -6.87761
3050
root 1.59643 17.278 -1.10688 0.629138 -23.081 3.05705
lowerback 13.2562 -1.18207 -7.1882
upperback 6.22877 -2.49551 -1.14481
thorax -0.592251 -1.40352 3.17637
lowerneck 3.13271 -0.919387 -2.83775
upperneck 3.24395 -1.38609 3.93125
head 0.526483 -0.716515 1.70615
rclavicle -2.62396e-014 4.45278e-014
rhumerus 42.6088 -12.4721 -31.4431
rradius 88.9086
rwrist -12.7376
rhand 1.34488 9.02494
rfingers 7.12502
rthumb 26.8779 -19.0843
lclavicle -2.62396e-014 4.45278e-014
lhumerus 50.1613 12.4195 33.3176
lradius 73.057
lwrist 4.09615
lhand -0.0594202 26.8749
lfingers 7.12502
lthumb 25.5335 55.1838
rfemur -28.2272 8.41661 10.8298
rtibia 43.1038
rfoot -16.3306 -8.07839
rtoes -19.8066
lfemur -21.5001 15.1877 -27.0984
ltibia 43.6434
lfoot -27.5356 15.9682
ltoes -6.67013
3051
root 1.59176 17.2444 -1.11144 0.497405 -22.8693 3.08981
lowerback 13.2268 -1.1479 -7.31478
upperback 6.31774 -2.46072 -1.22279
thorax -0.482887 -1.39397 3.15764
lowerneck 3.10528 -0.973426 -2.83949
upperneck 3.31293 -1.46307 4.09821
head 0.556921 -0.754044 1.76048
rclavicle -4.17448e-015 2.38542e-014
rhumerus 42.7037 -13.0496 -31.5167
rradius 88.9247
rwrist -13.0916
rhand 1.4905 9.12237
rfingers 7.12502
rthumb 27.0172 -18.9654
lclavicle -4.17448e-015 2.38542e-014
lhumerus 49.9996 12.2309 33.1794
lradius 73.5319
lwrist 4.12061
lhand -0.148331 26.8748
lfingers 7.12502
lthumb 25.4483 55.1959
rfemur -28.441 8.42698 10.8163
rtibia 43.8257
rfoot -16.6522 -8.30822
rtoes -19.8069
lfemur -21.6886 15.3031 -27.0783
ltibia 44.1821
lfoot -27.6425 15.7091
ltoes -6.91219
3052
root 1.58473 17.2112 -1.11727 0.295973 -22.6697 3.22696
lowerback 13.2459 -1.06491 -7.55557
upperback 6.39365 -2.37996 -1.30794
thorax -0.412354 -1.3623 3.19162
lowerneck 3.0455 -1.07144 -2.84893
upperneck 3.44574 -1.60032 4.26134
head 0.615282 -0.821013 1.81498
rclavicle -3.04141e-014 2.62396e-014
rhumerus 42.7601 -13.6706 -31.5221
rradius 88.9241
rwrist -13.341
rhand 1.73727 8.93541
rfingers 7.12502
rthumb 27.2533 -19.1155
lclavicle -3.04141e-014 2.62396e-014
lhumerus 49.8993 12.0388 33.1187
lradius 74.0073
lwrist 4.24892
lhand 0.086169 26.7412
lfingers 7.12502
lthumb 25.6729 55.0301
rfemur -28.6193 8.45749 10.7058
rtibia 44.5457
rfoot -16.9592 -8.51156
rtoes -19.7849
lfemur -21.8108 15.4397 -27.1481
ltibia 44.6775
lfoot -27.7153 15.4797
ltoes -7.30187
3053
root 1.57755 17.1806 -1.12251 0.0414905 -22.4036 3.43259
lowerback 13.3151 -1.00788 -7.89104
upperback 6.46389 -2.34898 -1.38426
thorax -0.363664 -1.35684 3.29555
lowerneck 3.06442 -1.14671 -2.92474
upperneck 3.46782 -1.70808 4.45939
head 0.626104 -0.875131 1.89319
rclavicle -1.19271e-014 7.15625e-015
rhumerus 42.8641 -14.1894 -31.5016
rradius 88.9727
rwrist -13.5276
rhand 1.98311 8.66993
rfingers 7.12502
rthumb 27.4884 -19.3438
lclavicle -1.19271e-014 7.15625e-015
lhumerus 49.7065 11.8573 32.9306
lradius 74.4861
lwrist 4.46806
lhand 0.179529 26.7719
lfingers 7.12502
lthumb 25.7623 55.0478
rfemur -28.7419 8.3581 10.5484
rtibia 45.2563
rfoot -17.2033 -8.77267
rtoes -20.202
lfemur -21.8676 15.5454 -27.2769
ltibia 45.1333
lfoot -27.8031 15.2179
ltoes -7.29965
3054
root 1.56992 17.1524 -1.12494 -0.211482 -22.1179 3.56705
lowerback 13.3717 -0.982552 -8.13283
upperback 6.53856 -2.34721 -1.45187
thorax -0.304814 -1.36475 3.35924
lowerneck 3.10077 -1.20441 -3.14628
upperneck 3.51681 -1.79934 4.73723
head 0.644595 -0.922597 2.02399
rclavicle 2.24627e-014 -1.03368e-014
rhumerus 43.0487 -14.61 -31.5624
rradius 88.9489
rwrist -13.7933
rhand 2.19101 8.86298
rfingers 7.12502
rthumb 27.6873 -19.119
lclavicle 2.24627e-014 -1.03368e-014
lhumerus 49.3922 11.6711 32.6524
lradius 75.0448
lwrist 4.61902
lhand 0.320368 26.8681
lfingers 7.12502
lthumb 25.8972 55.1244
rfemur -28.7968 8.28091 10.4646
rtibia 45.9303
rfoot -17.5106 -8.98983
rtoes -20.2634
lfemur -21.8711 15.5875 -27.3202
ltibia 45.5521
lfoot -27.9702 14.8921
ltoes -6.99024
3055
root 1.56132 17.1259 -1.12546 -0.399804 -21.8841 3.63202
lowerback 13.3268 -0.928192 -8.19558
upperback 6.63559 -2.27628 -1.57931
thorax -0.188351 -1.33621 3.24782
lowerneck 3.08783 -1.28591 -3.30355
upperneck 3.55083 -1.92075 5.07218
head 0.668689 -0.983597 2.16246
rclavicle -2.40529e-014 -7.95139e-016
rhumerus 43.1212 -15.0745 -31.6428
rradius 88.8469
rwrist -13.8992
rhand 2.06634 9.13105
rfingers 7.12502
rthumb 27.568 -18.87
lclavicle -2.40529e-014 -7.95139e-016
lhumerus 49.216 11.4184 32.3318
lradius 75.6096
lwrist 4.57861
lhand 0.420616 26.9523
lfingers 7.12502
lthumb 25.9932 55.1945
rfemur -28.8802 8.32803 10.4398
rtibia 46.5585
rfoot -17.7686 -9.25955
rtoes -20.085
lfemur -21.8924 15.6576 -27.297
ltibia 45.9511
lfoot -28.047 14.583
ltoes -6.82907
3056
root 1.55238 17.0999 -1.12373 -0.590889 -21.6471 3.73139
lowerback 13.2795 -0.849382 -8.20876
upperback 6.76626 -2.16618 -1.75051
thorax -0.0435466 -1.28832 3.05752
lowerneck 2.991 -1.42877 -3.31472
upperneck 3.49607 -2.11221 5.28956
head 0.679874 -1.07734 2.23578
rclavicle -3.55825e-014 7.15625e-015
rhumerus 43.1033 -15.5817 -31.6971
rradius 88.6947
rwrist -13.5972
rhand 1.5085 9.27024
rfingers 7.12502
rthumb 27.0344 -18.8148
lclavicle -3.55825e-014 7.15625e-015
lhumerus 49.2027 11.16 31.999
lradius 76.1614
lwrist 4.48485
lhand 0.367807 26.9404
lfingers 7.12502
lthumb 25.9426 55.1901
rfemur -28.952 8.36173 10.3748
rtibia 47.1736
rfoot -18.0492 -9.50683
rtoes -19.9754
lfemur -21.8863 15.6493 -27.3213
ltibia 46.3154
lfoot -28.1315 14.4234
ltoes -7.11378
3057
root 1.54285 17.0759 -1.12075 -0.760382 -21.363 3.83158
lowerback 13.244 -0.804489 -8.26658
upperback 6.82287 -2.10915 -1.88248
thorax 0.0267109 -1.26319 2.94201
lowerneck 3.08118 -1.55369 -3.31509
upperneck 3.4225 -2.28075 5.41175
head 0.651048 -1.16268 2.2773
rclavicle 4.07509e-014 0
rhumerus 43.0795 -15.938 -31.7428
rradius 88.6424
rwrist -13.4302
rhand 1.24674 9.26456
rfingers 7.12502
rthumb 26.784 -18.8591
lclavicle 4.07509e-014 0
lhumerus 48.9734 10.8833 31.6131
lradius 76.7297
lwrist 4.50182
lhand 0.314745 26.9093
lfingers 7.12502
lthumb 25.8918 55.1664
rfemur -29.0204 8.33449 10.3115
rtibia 47.7865
rfoot -18.3155 -9.7744
rtoes -20.1894
lfemur -21.8986 15.5794 -27.3594
ltibia 46.6567
lfoot -28.2204 14.3537
ltoes -7.6594
3058
root 1.53274 17.0509 -1.11832 -0.950167 -21.0016 4.13718
lowerback 13.1662 -0.827797 -8.60121
upperback 6.84307 -2.16961 -2.00495
thorax 0.109437 -1.30295 3.00364
lowerneck 3.16312 -1.58722 -3.48159
upperneck 3.45586 -2.33706 5.58783
head 0.655147 -1.19321 2.3668
rclavicle -2.54444e-014 3.65764e-014
rhumerus 43.3035 -16.1579 -31.833
rradius 88.561
rwrist -13.4963
rhand 1.12847 9.26044
rfingers 7.12502
rthumb 26.6708 -18.8805
lclavicle -2.54444e-014 3.65764e-014
lhumerus 48.5623 10.7484 31.255
lradius 77.2533
lwrist 4.5178
lhand 0.407624 26.8693
lfingers 7.12502
lthumb 25.9807 55.1134
rfemur -29.1626 8.22061 10.0069
rtibia 48.4159
rfoot -18.5819 -9.95285
rtoes -20.0871
lfemur -21.951 15.4129 -27.634
ltibia 46.9645
lfoot -28.2961 14.2449
ltoes -7.70973
